<mxfile host="app.diagrams.net" modified="2023-07-21T02:22:15.197Z" agent="Mozilla/5.0 (Windows NT 10.0; Win64; x64; rv:109.0) Gecko/20100101 Firefox/115.0" etag="oYDoYelh9QvNAC7qzL-B" version="21.6.2" type="device">
  <diagram name="Página-1" id="gy0_waIXv2V30fma_bCt">
    <mxGraphModel dx="2739" dy="995" grid="1" gridSize="10" guides="1" tooltips="1" connect="1" arrows="1" fold="1" page="1" pageScale="1" pageWidth="827" pageHeight="1169" math="0" shadow="0">
      <root>
        <mxCell id="0" />
        <mxCell id="1" parent="0" />
        <mxCell id="oovgq_aX29TuzvuEi8xS-2" value="&lt;font style=&quot;font-size: 11px;&quot; face=&quot;Verdana&quot;&gt;Lugar&lt;/font&gt;" style="ellipse;whiteSpace=wrap;html=1;aspect=fixed;fillColor=#0050ef;strokeColor=#000000;fontColor=#ffffff;" vertex="1" parent="1">
          <mxGeometry x="360" y="180" width="80" height="80" as="geometry" />
        </mxCell>
        <mxCell id="oovgq_aX29TuzvuEi8xS-3" value="&lt;font face=&quot;Verdana&quot;&gt;Grupo&lt;/font&gt;" style="ellipse;whiteSpace=wrap;html=1;aspect=fixed;fillColor=#0050ef;strokeColor=#000000;fontColor=#ffffff;" vertex="1" parent="1">
          <mxGeometry x="540" y="360" width="80" height="80" as="geometry" />
        </mxCell>
        <mxCell id="oovgq_aX29TuzvuEi8xS-17" style="rounded=0;orthogonalLoop=1;jettySize=auto;html=1;entryX=0.017;entryY=0.67;entryDx=0;entryDy=0;exitX=0.982;exitY=0.653;exitDx=0;exitDy=0;exitPerimeter=0;entryPerimeter=0;" edge="1" parent="1" source="oovgq_aX29TuzvuEi8xS-4" target="oovgq_aX29TuzvuEi8xS-3">
          <mxGeometry relative="1" as="geometry">
            <mxPoint x="360" y="400" as="sourcePoint" />
            <mxPoint x="460" y="410" as="targetPoint" />
          </mxGeometry>
        </mxCell>
        <mxCell id="oovgq_aX29TuzvuEi8xS-18" value="isInGroup" style="edgeLabel;html=1;align=center;verticalAlign=middle;resizable=0;points=[];" vertex="1" connectable="0" parent="oovgq_aX29TuzvuEi8xS-17">
          <mxGeometry x="-0.2116" y="-1" relative="1" as="geometry">
            <mxPoint x="18" y="-4" as="offset" />
          </mxGeometry>
        </mxCell>
        <mxCell id="oovgq_aX29TuzvuEi8xS-4" value="&lt;font face=&quot;Verdana&quot;&gt;Territorio&lt;/font&gt;" style="ellipse;whiteSpace=wrap;html=1;aspect=fixed;fillColor=#0050ef;strokeColor=#000000;fontColor=#ffffff;" vertex="1" parent="1">
          <mxGeometry x="200" y="360" width="80" height="80" as="geometry" />
        </mxCell>
        <mxCell id="oovgq_aX29TuzvuEi8xS-5" value="&lt;font face=&quot;Verdana&quot;&gt;Región Geográfica&lt;br&gt;&lt;/font&gt;" style="ellipse;whiteSpace=wrap;html=1;aspect=fixed;fillColor=#0050ef;strokeColor=#000000;fontColor=#ffffff;" vertex="1" parent="1">
          <mxGeometry x="710" y="450" width="80" height="80" as="geometry" />
        </mxCell>
        <mxCell id="oovgq_aX29TuzvuEi8xS-6" value="&lt;font face=&quot;Verdana&quot;&gt;Región Económica&lt;br&gt;&lt;/font&gt;" style="ellipse;whiteSpace=wrap;html=1;aspect=fixed;fillColor=#0050ef;strokeColor=#000000;fontColor=#ffffff;" vertex="1" parent="1">
          <mxGeometry x="630" y="500" width="80" height="80" as="geometry" />
        </mxCell>
        <mxCell id="oovgq_aX29TuzvuEi8xS-7" value="&lt;div style=&quot;font-size: 11px;&quot;&gt;&lt;font style=&quot;font-size: 11px;&quot; face=&quot;Verdana&quot;&gt;Organización&lt;/font&gt;&lt;/div&gt;" style="ellipse;whiteSpace=wrap;html=1;aspect=fixed;fillColor=#0050ef;strokeColor=#000000;fontColor=#ffffff;" vertex="1" parent="1">
          <mxGeometry x="720" y="360" width="80" height="80" as="geometry" />
        </mxCell>
        <mxCell id="oovgq_aX29TuzvuEi8xS-9" style="rounded=0;orthogonalLoop=1;jettySize=auto;html=1;exitX=0.5;exitY=0;exitDx=0;exitDy=0;entryX=0.5;entryY=1;entryDx=0;entryDy=0;" edge="1" parent="1" source="oovgq_aX29TuzvuEi8xS-8" target="oovgq_aX29TuzvuEi8xS-3">
          <mxGeometry relative="1" as="geometry" />
        </mxCell>
        <mxCell id="oovgq_aX29TuzvuEi8xS-10" value="subClassOf" style="edgeLabel;html=1;align=center;verticalAlign=middle;resizable=0;points=[];" vertex="1" connectable="0" parent="oovgq_aX29TuzvuEi8xS-9">
          <mxGeometry x="-0.2123" y="-1" relative="1" as="geometry">
            <mxPoint x="-1" y="-6" as="offset" />
          </mxGeometry>
        </mxCell>
        <mxCell id="oovgq_aX29TuzvuEi8xS-8" value="&lt;font face=&quot;Verdana&quot;&gt;Grupo&lt;/font&gt; Especial" style="ellipse;whiteSpace=wrap;html=1;aspect=fixed;fillColor=#0050ef;strokeColor=#000000;fontColor=#ffffff;" vertex="1" parent="1">
          <mxGeometry x="540" y="500" width="80" height="80" as="geometry" />
        </mxCell>
        <mxCell id="oovgq_aX29TuzvuEi8xS-11" style="rounded=0;orthogonalLoop=1;jettySize=auto;html=1;exitX=0.27;exitY=0.039;exitDx=0;exitDy=0;exitPerimeter=0;" edge="1" parent="1" source="oovgq_aX29TuzvuEi8xS-6" target="oovgq_aX29TuzvuEi8xS-3">
          <mxGeometry relative="1" as="geometry">
            <mxPoint x="561" y="512" as="sourcePoint" />
            <mxPoint x="579" y="448" as="targetPoint" />
          </mxGeometry>
        </mxCell>
        <mxCell id="oovgq_aX29TuzvuEi8xS-12" value="subClassOf" style="edgeLabel;html=1;align=center;verticalAlign=middle;resizable=0;points=[];" vertex="1" connectable="0" parent="oovgq_aX29TuzvuEi8xS-11">
          <mxGeometry x="-0.2123" y="-1" relative="1" as="geometry">
            <mxPoint x="10" y="6" as="offset" />
          </mxGeometry>
        </mxCell>
        <mxCell id="oovgq_aX29TuzvuEi8xS-13" style="rounded=0;orthogonalLoop=1;jettySize=auto;html=1;exitX=0.061;exitY=0.202;exitDx=0;exitDy=0;exitPerimeter=0;" edge="1" parent="1" source="oovgq_aX29TuzvuEi8xS-5" target="oovgq_aX29TuzvuEi8xS-3">
          <mxGeometry relative="1" as="geometry">
            <mxPoint x="720" y="390" as="sourcePoint" />
            <mxPoint x="589" y="458" as="targetPoint" />
          </mxGeometry>
        </mxCell>
        <mxCell id="oovgq_aX29TuzvuEi8xS-14" value="subClassOf" style="edgeLabel;html=1;align=center;verticalAlign=middle;resizable=0;points=[];" vertex="1" connectable="0" parent="oovgq_aX29TuzvuEi8xS-13">
          <mxGeometry x="-0.2123" y="-1" relative="1" as="geometry">
            <mxPoint x="14" y="4" as="offset" />
          </mxGeometry>
        </mxCell>
        <mxCell id="oovgq_aX29TuzvuEi8xS-15" style="rounded=0;orthogonalLoop=1;jettySize=auto;html=1;exitX=0;exitY=0.5;exitDx=0;exitDy=0;" edge="1" parent="1" source="oovgq_aX29TuzvuEi8xS-7" target="oovgq_aX29TuzvuEi8xS-3">
          <mxGeometry relative="1" as="geometry">
            <mxPoint x="581" y="532" as="sourcePoint" />
            <mxPoint x="599" y="468" as="targetPoint" />
          </mxGeometry>
        </mxCell>
        <mxCell id="oovgq_aX29TuzvuEi8xS-16" value="subClassOf" style="edgeLabel;html=1;align=center;verticalAlign=middle;resizable=0;points=[];" vertex="1" connectable="0" parent="oovgq_aX29TuzvuEi8xS-15">
          <mxGeometry x="-0.2123" y="-1" relative="1" as="geometry">
            <mxPoint x="-5" as="offset" />
          </mxGeometry>
        </mxCell>
        <mxCell id="oovgq_aX29TuzvuEi8xS-19" style="rounded=0;orthogonalLoop=1;jettySize=auto;html=1;exitX=-0.019;exitY=0.38;exitDx=0;exitDy=0;entryX=0.981;entryY=0.38;entryDx=0;entryDy=0;entryPerimeter=0;exitPerimeter=0;" edge="1" parent="1" source="oovgq_aX29TuzvuEi8xS-3" target="oovgq_aX29TuzvuEi8xS-4">
          <mxGeometry relative="1" as="geometry">
            <mxPoint x="333" y="340" as="sourcePoint" />
            <mxPoint x="495" y="342" as="targetPoint" />
          </mxGeometry>
        </mxCell>
        <mxCell id="oovgq_aX29TuzvuEi8xS-20" value="hasMember" style="edgeLabel;html=1;align=center;verticalAlign=middle;resizable=0;points=[];" vertex="1" connectable="0" parent="oovgq_aX29TuzvuEi8xS-19">
          <mxGeometry x="-0.2116" y="-1" relative="1" as="geometry">
            <mxPoint x="-36" y="1" as="offset" />
          </mxGeometry>
        </mxCell>
        <mxCell id="oovgq_aX29TuzvuEi8xS-21" value="&lt;font face=&quot;Verdana&quot;&gt;Otro&lt;/font&gt;" style="ellipse;whiteSpace=wrap;html=1;aspect=fixed;fillColor=#0050ef;strokeColor=#000000;fontColor=#ffffff;" vertex="1" parent="1">
          <mxGeometry x="-10" y="450" width="80" height="80" as="geometry" />
        </mxCell>
        <mxCell id="oovgq_aX29TuzvuEi8xS-22" value="&lt;font face=&quot;Verdana&quot;&gt;Dsiputado&lt;/font&gt;" style="ellipse;whiteSpace=wrap;html=1;aspect=fixed;fillColor=#0050ef;strokeColor=#000000;fontColor=#ffffff;" vertex="1" parent="1">
          <mxGeometry x="-50" y="360" width="80" height="80" as="geometry" />
        </mxCell>
        <mxCell id="oovgq_aX29TuzvuEi8xS-23" value="&lt;font face=&quot;Verdana&quot;&gt;Auto Gobierno&lt;br&gt;&lt;/font&gt;" style="ellipse;whiteSpace=wrap;html=1;aspect=fixed;fillColor=#0050ef;strokeColor=#000000;fontColor=#ffffff;" vertex="1" parent="1">
          <mxGeometry y="270" width="80" height="80" as="geometry" />
        </mxCell>
        <mxCell id="oovgq_aX29TuzvuEi8xS-27" style="rounded=0;orthogonalLoop=1;jettySize=auto;html=1;exitX=0.354;exitY=0.048;exitDx=0;exitDy=0;entryX=1;entryY=1;entryDx=0;entryDy=0;exitPerimeter=0;" edge="1" parent="1" source="oovgq_aX29TuzvuEi8xS-3" target="oovgq_aX29TuzvuEi8xS-2">
          <mxGeometry relative="1" as="geometry">
            <mxPoint x="512" y="280" as="sourcePoint" />
            <mxPoint x="430" y="307" as="targetPoint" />
          </mxGeometry>
        </mxCell>
        <mxCell id="oovgq_aX29TuzvuEi8xS-28" value="subClassOf" style="edgeLabel;html=1;align=center;verticalAlign=middle;resizable=0;points=[];" vertex="1" connectable="0" parent="oovgq_aX29TuzvuEi8xS-27">
          <mxGeometry x="-0.2123" y="-1" relative="1" as="geometry">
            <mxPoint x="-5" as="offset" />
          </mxGeometry>
        </mxCell>
        <mxCell id="oovgq_aX29TuzvuEi8xS-29" style="rounded=0;orthogonalLoop=1;jettySize=auto;html=1;exitX=0.771;exitY=0.058;exitDx=0;exitDy=0;entryX=0;entryY=1;entryDx=0;entryDy=0;exitPerimeter=0;" edge="1" parent="1" source="oovgq_aX29TuzvuEi8xS-4" target="oovgq_aX29TuzvuEi8xS-2">
          <mxGeometry relative="1" as="geometry">
            <mxPoint x="312" y="280" as="sourcePoint" />
            <mxPoint x="230" y="307" as="targetPoint" />
          </mxGeometry>
        </mxCell>
        <mxCell id="oovgq_aX29TuzvuEi8xS-30" value="subClassOf" style="edgeLabel;html=1;align=center;verticalAlign=middle;resizable=0;points=[];" vertex="1" connectable="0" parent="oovgq_aX29TuzvuEi8xS-29">
          <mxGeometry x="-0.2123" y="-1" relative="1" as="geometry">
            <mxPoint x="-5" as="offset" />
          </mxGeometry>
        </mxCell>
        <mxCell id="oovgq_aX29TuzvuEi8xS-31" style="rounded=0;orthogonalLoop=1;jettySize=auto;html=1;" edge="1" parent="1" source="oovgq_aX29TuzvuEi8xS-21" target="oovgq_aX29TuzvuEi8xS-4">
          <mxGeometry relative="1" as="geometry">
            <mxPoint x="382" y="493" as="sourcePoint" />
            <mxPoint x="300" y="520" as="targetPoint" />
          </mxGeometry>
        </mxCell>
        <mxCell id="oovgq_aX29TuzvuEi8xS-32" value="subClassOf" style="edgeLabel;html=1;align=center;verticalAlign=middle;resizable=0;points=[];" vertex="1" connectable="0" parent="oovgq_aX29TuzvuEi8xS-31">
          <mxGeometry x="-0.2123" y="-1" relative="1" as="geometry">
            <mxPoint x="-5" as="offset" />
          </mxGeometry>
        </mxCell>
        <mxCell id="oovgq_aX29TuzvuEi8xS-33" style="rounded=0;orthogonalLoop=1;jettySize=auto;html=1;" edge="1" parent="1" source="oovgq_aX29TuzvuEi8xS-22" target="oovgq_aX29TuzvuEi8xS-4">
          <mxGeometry relative="1" as="geometry">
            <mxPoint x="272" y="233" as="sourcePoint" />
            <mxPoint x="190" y="260" as="targetPoint" />
          </mxGeometry>
        </mxCell>
        <mxCell id="oovgq_aX29TuzvuEi8xS-34" value="subClassOf" style="edgeLabel;html=1;align=center;verticalAlign=middle;resizable=0;points=[];" vertex="1" connectable="0" parent="oovgq_aX29TuzvuEi8xS-33">
          <mxGeometry x="-0.2123" y="-1" relative="1" as="geometry">
            <mxPoint x="2" y="-4" as="offset" />
          </mxGeometry>
        </mxCell>
        <mxCell id="oovgq_aX29TuzvuEi8xS-35" style="rounded=0;orthogonalLoop=1;jettySize=auto;html=1;entryX=0.05;entryY=0.288;entryDx=0;entryDy=0;entryPerimeter=0;" edge="1" parent="1" source="oovgq_aX29TuzvuEi8xS-23" target="oovgq_aX29TuzvuEi8xS-4">
          <mxGeometry relative="1" as="geometry">
            <mxPoint x="122" y="240" as="sourcePoint" />
            <mxPoint x="111.03999999999996" y="369.4399999999998" as="targetPoint" />
          </mxGeometry>
        </mxCell>
        <mxCell id="oovgq_aX29TuzvuEi8xS-36" value="subClassOf" style="edgeLabel;html=1;align=center;verticalAlign=middle;resizable=0;points=[];" vertex="1" connectable="0" parent="oovgq_aX29TuzvuEi8xS-35">
          <mxGeometry x="-0.2123" y="-1" relative="1" as="geometry">
            <mxPoint x="-6" y="-10" as="offset" />
          </mxGeometry>
        </mxCell>
        <mxCell id="oovgq_aX29TuzvuEi8xS-39" value="String" style="rounded=0;whiteSpace=wrap;html=1;strokeColor=#000000;fillColor=#fdc502;" vertex="1" parent="1">
          <mxGeometry x="360" y="440" width="70" height="20" as="geometry" />
        </mxCell>
        <mxCell id="oovgq_aX29TuzvuEi8xS-40" value="String" style="rounded=0;whiteSpace=wrap;html=1;strokeColor=#000000;fillColor=#fdc502;" vertex="1" parent="1">
          <mxGeometry x="120" y="530" width="70" height="20" as="geometry" />
        </mxCell>
        <mxCell id="oovgq_aX29TuzvuEi8xS-41" value="String" style="rounded=0;whiteSpace=wrap;html=1;strokeColor=#000000;fillColor=#fdc502;" vertex="1" parent="1">
          <mxGeometry x="290" y="530" width="70" height="20" as="geometry" />
        </mxCell>
        <mxCell id="oovgq_aX29TuzvuEi8xS-42" value="String" style="rounded=0;whiteSpace=wrap;html=1;strokeColor=#000000;fillColor=#fdc502;" vertex="1" parent="1">
          <mxGeometry x="343.5" y="490" width="70" height="20" as="geometry" />
        </mxCell>
        <mxCell id="oovgq_aX29TuzvuEi8xS-43" value="String" style="rounded=0;whiteSpace=wrap;html=1;strokeColor=#000000;fillColor=#fdc502;" vertex="1" parent="1">
          <mxGeometry x="90" y="490" width="70" height="20" as="geometry" />
        </mxCell>
        <mxCell id="oovgq_aX29TuzvuEi8xS-44" value="String" style="rounded=0;whiteSpace=wrap;html=1;strokeColor=#000000;fillColor=#fdc502;" vertex="1" parent="1">
          <mxGeometry x="205" y="560" width="70" height="20" as="geometry" />
        </mxCell>
        <mxCell id="oovgq_aX29TuzvuEi8xS-46" value="" style="endArrow=classic;html=1;rounded=0;exitX=0.24;exitY=0.936;exitDx=0;exitDy=0;entryX=0.75;entryY=0;entryDx=0;entryDy=0;exitPerimeter=0;" edge="1" parent="1" source="oovgq_aX29TuzvuEi8xS-4" target="oovgq_aX29TuzvuEi8xS-43">
          <mxGeometry width="50" height="50" relative="1" as="geometry">
            <mxPoint x="240" y="510" as="sourcePoint" />
            <mxPoint x="290" y="460" as="targetPoint" />
          </mxGeometry>
        </mxCell>
        <mxCell id="oovgq_aX29TuzvuEi8xS-57" value="codeUN" style="edgeLabel;html=1;align=center;verticalAlign=middle;resizable=0;points=[];" vertex="1" connectable="0" parent="oovgq_aX29TuzvuEi8xS-46">
          <mxGeometry x="0.4107" y="1" relative="1" as="geometry">
            <mxPoint x="4" y="-15" as="offset" />
          </mxGeometry>
        </mxCell>
        <mxCell id="oovgq_aX29TuzvuEi8xS-47" value="" style="endArrow=classic;html=1;rounded=0;exitX=0.384;exitY=0.982;exitDx=0;exitDy=0;entryX=0.75;entryY=0;entryDx=0;entryDy=0;exitPerimeter=0;" edge="1" parent="1" source="oovgq_aX29TuzvuEi8xS-4" target="oovgq_aX29TuzvuEi8xS-40">
          <mxGeometry width="50" height="50" relative="1" as="geometry">
            <mxPoint x="250" y="520" as="sourcePoint" />
            <mxPoint x="300" y="470" as="targetPoint" />
          </mxGeometry>
        </mxCell>
        <mxCell id="oovgq_aX29TuzvuEi8xS-56" value="codeISO3" style="edgeLabel;html=1;align=center;verticalAlign=middle;resizable=0;points=[];" vertex="1" connectable="0" parent="oovgq_aX29TuzvuEi8xS-47">
          <mxGeometry x="0.3347" y="-2" relative="1" as="geometry">
            <mxPoint x="3" y="1" as="offset" />
          </mxGeometry>
        </mxCell>
        <mxCell id="oovgq_aX29TuzvuEi8xS-48" value="" style="endArrow=classic;html=1;rounded=0;exitX=0.5;exitY=1;exitDx=0;exitDy=0;entryX=0.496;entryY=0.123;entryDx=0;entryDy=0;entryPerimeter=0;" edge="1" parent="1" source="oovgq_aX29TuzvuEi8xS-4" target="oovgq_aX29TuzvuEi8xS-44">
          <mxGeometry width="50" height="50" relative="1" as="geometry">
            <mxPoint x="260" y="530" as="sourcePoint" />
            <mxPoint x="310" y="480" as="targetPoint" />
          </mxGeometry>
        </mxCell>
        <mxCell id="oovgq_aX29TuzvuEi8xS-55" value="nameOfficialEN" style="edgeLabel;html=1;align=center;verticalAlign=middle;resizable=0;points=[];" vertex="1" connectable="0" parent="oovgq_aX29TuzvuEi8xS-48">
          <mxGeometry x="0.5367" relative="1" as="geometry">
            <mxPoint y="6" as="offset" />
          </mxGeometry>
        </mxCell>
        <mxCell id="oovgq_aX29TuzvuEi8xS-49" value="" style="endArrow=classic;html=1;rounded=0;entryX=0.25;entryY=0;entryDx=0;entryDy=0;exitX=0.679;exitY=0.971;exitDx=0;exitDy=0;exitPerimeter=0;" edge="1" parent="1" source="oovgq_aX29TuzvuEi8xS-4" target="oovgq_aX29TuzvuEi8xS-41">
          <mxGeometry width="50" height="50" relative="1" as="geometry">
            <mxPoint x="250" y="430" as="sourcePoint" />
            <mxPoint x="240" y="585" as="targetPoint" />
          </mxGeometry>
        </mxCell>
        <mxCell id="oovgq_aX29TuzvuEi8xS-54" value="nameOfficialES" style="edgeLabel;html=1;align=center;verticalAlign=middle;resizable=0;points=[];" vertex="1" connectable="0" parent="oovgq_aX29TuzvuEi8xS-49">
          <mxGeometry x="0.4086" relative="1" as="geometry">
            <mxPoint x="7" y="-3" as="offset" />
          </mxGeometry>
        </mxCell>
        <mxCell id="oovgq_aX29TuzvuEi8xS-50" value="" style="endArrow=classic;html=1;rounded=0;entryX=0.25;entryY=0;entryDx=0;entryDy=0;exitX=0.804;exitY=0.885;exitDx=0;exitDy=0;exitPerimeter=0;" edge="1" parent="1" source="oovgq_aX29TuzvuEi8xS-4" target="oovgq_aX29TuzvuEi8xS-42">
          <mxGeometry width="50" height="50" relative="1" as="geometry">
            <mxPoint x="252" y="438" as="sourcePoint" />
            <mxPoint x="186" y="552" as="targetPoint" />
          </mxGeometry>
        </mxCell>
        <mxCell id="oovgq_aX29TuzvuEi8xS-53" value="nameShortEN" style="edgeLabel;html=1;align=center;verticalAlign=middle;resizable=0;points=[];" vertex="1" connectable="0" parent="oovgq_aX29TuzvuEi8xS-50">
          <mxGeometry x="-0.137" y="-1" relative="1" as="geometry">
            <mxPoint x="13" y="3" as="offset" />
          </mxGeometry>
        </mxCell>
        <mxCell id="oovgq_aX29TuzvuEi8xS-51" value="" style="endArrow=classic;html=1;rounded=0;exitX=0.929;exitY=0.76;exitDx=0;exitDy=0;entryX=0;entryY=0.5;entryDx=0;entryDy=0;exitPerimeter=0;" edge="1" parent="1" source="oovgq_aX29TuzvuEi8xS-4" target="oovgq_aX29TuzvuEi8xS-39">
          <mxGeometry width="50" height="50" relative="1" as="geometry">
            <mxPoint x="350" y="435" as="sourcePoint" />
            <mxPoint x="274" y="500" as="targetPoint" />
          </mxGeometry>
        </mxCell>
        <mxCell id="oovgq_aX29TuzvuEi8xS-52" value="nameShortES" style="edgeLabel;html=1;align=center;verticalAlign=middle;resizable=0;points=[];" vertex="1" connectable="0" parent="oovgq_aX29TuzvuEi8xS-51">
          <mxGeometry x="-0.4206" y="1" relative="1" as="geometry">
            <mxPoint x="20" y="2" as="offset" />
          </mxGeometry>
        </mxCell>
        <mxCell id="oovgq_aX29TuzvuEi8xS-58" value="String" style="rounded=0;whiteSpace=wrap;html=1;strokeColor=#000000;fillColor=#fdc502;" vertex="1" parent="1">
          <mxGeometry x="310" y="120" width="70" height="20" as="geometry" />
        </mxCell>
        <mxCell id="oovgq_aX29TuzvuEi8xS-59" value="String" style="rounded=0;whiteSpace=wrap;html=1;strokeColor=#000000;fillColor=#fdc502;" vertex="1" parent="1">
          <mxGeometry x="413" y="120" width="70" height="20" as="geometry" />
        </mxCell>
        <mxCell id="oovgq_aX29TuzvuEi8xS-61" value="" style="endArrow=classic;html=1;rounded=0;exitX=0.693;exitY=0.015;exitDx=0;exitDy=0;entryX=0.5;entryY=1;entryDx=0;entryDy=0;exitPerimeter=0;" edge="1" parent="1" source="oovgq_aX29TuzvuEi8xS-2" target="oovgq_aX29TuzvuEi8xS-59">
          <mxGeometry width="50" height="50" relative="1" as="geometry">
            <mxPoint x="470" y="190" as="sourcePoint" />
            <mxPoint x="556" y="219" as="targetPoint" />
          </mxGeometry>
        </mxCell>
        <mxCell id="oovgq_aX29TuzvuEi8xS-62" value="nameListES" style="edgeLabel;html=1;align=center;verticalAlign=middle;resizable=0;points=[];" vertex="1" connectable="0" parent="oovgq_aX29TuzvuEi8xS-61">
          <mxGeometry x="-0.4206" y="1" relative="1" as="geometry">
            <mxPoint x="16" y="-9" as="offset" />
          </mxGeometry>
        </mxCell>
        <mxCell id="oovgq_aX29TuzvuEi8xS-63" value="" style="endArrow=classic;html=1;rounded=0;exitX=0.323;exitY=0.025;exitDx=0;exitDy=0;entryX=0.5;entryY=1;entryDx=0;entryDy=0;exitPerimeter=0;" edge="1" parent="1" source="oovgq_aX29TuzvuEi8xS-2" target="oovgq_aX29TuzvuEi8xS-58">
          <mxGeometry width="50" height="50" relative="1" as="geometry">
            <mxPoint x="438" y="202" as="sourcePoint" />
            <mxPoint x="495" y="130" as="targetPoint" />
          </mxGeometry>
        </mxCell>
        <mxCell id="oovgq_aX29TuzvuEi8xS-64" value="nameListEN" style="edgeLabel;html=1;align=center;verticalAlign=middle;resizable=0;points=[];" vertex="1" connectable="0" parent="oovgq_aX29TuzvuEi8xS-63">
          <mxGeometry x="-0.4206" y="1" relative="1" as="geometry">
            <mxPoint x="-13" y="-10" as="offset" />
          </mxGeometry>
        </mxCell>
        <mxCell id="oovgq_aX29TuzvuEi8xS-68" value="" style="endArrow=classic;html=1;rounded=0;exitX=0;exitY=0;exitDx=0;exitDy=0;entryX=0.64;entryY=0.015;entryDx=0;entryDy=0;entryPerimeter=0;edgeStyle=orthogonalEdgeStyle;curved=1;" edge="1" parent="1" source="oovgq_aX29TuzvuEi8xS-4" target="oovgq_aX29TuzvuEi8xS-4">
          <mxGeometry width="50" height="50" relative="1" as="geometry">
            <mxPoint x="209.9930645386902" y="370.77876696956906" as="sourcePoint" />
            <mxPoint x="251.4200000000002" y="359.99999999999994" as="targetPoint" />
            <Array as="points">
              <mxPoint x="200" y="372" />
              <mxPoint x="200" y="330" />
              <mxPoint x="251" y="330" />
            </Array>
          </mxGeometry>
        </mxCell>
        <mxCell id="oovgq_aX29TuzvuEi8xS-69" value="&lt;font style=&quot;font-size: 9px;&quot;&gt;hasBorderWith&lt;/font&gt;" style="edgeLabel;html=1;align=center;verticalAlign=middle;resizable=0;points=[];" vertex="1" connectable="0" parent="oovgq_aX29TuzvuEi8xS-68">
          <mxGeometry x="0.1306" y="-2" relative="1" as="geometry">
            <mxPoint x="-18" y="8" as="offset" />
          </mxGeometry>
        </mxCell>
      </root>
    </mxGraphModel>
  </diagram>
</mxfile>
